<?xml version="1.0" encoding="utf-8"?>
<!-- Generator: Adobe Illustrator 24.2.3, SVG Export Plug-In . SVG Version: 6.00 Build 0)  -->
<svg version="1.1" id="Camada_1" xmlns="http://www.w3.org/2000/svg" xmlns:xlink="http://www.w3.org/1999/xlink" x="0px" y="0px"
	 viewBox="0 0 300 107" style="enable-background:new 0 0 300 107;" xml:space="preserve">
<style type="text/css">
	.st0{fill:#E62C76;}
	.st1{fill:#E62F77;}
	.st2{fill:#3626A6;}
	.st3{fill:#E62C75;}
	.st4{fill:#FEFEFE;}
</style>
<path class="st0" d="M217.4,87.8c-12.8-0.1-22.7-10.1-22.6-22.8c0.1-12.3,10.3-22.1,22.8-22.2c12.7,0,23,10.1,23,22.6
	C240.6,77.9,230.2,87.9,217.4,87.8z"/>
<path class="st1" d="M179.3,53.9c0-9.4,0-18.7,0-28.1c0-2.7,0.5-5.1,3.5-5.3c3.3-0.1,4,2.5,4,5.3c0,18.9,0,37.8,0,56.7
	c0,2.5-0.3,5.1-3.5,5.2c-3.5,0.1-3.9-2.5-3.9-5.2C179.3,72.9,179.3,63.4,179.3,53.9z"/>
<path class="st2" d="M105.1,68.7c-2.2,3.2-3.2,6.9-6.3,10c1.2-8.9,5.1-17.1,2.6-26.1C99.4,61.3,95,68.4,89,75
	c-14.4,15.5-32.5,19.6-50.6,7.5c-12.9-8.6-17.7-21.8-15-36.7c2.7-15.2,11.2-26.5,27.4-30.2c6.7-1.5,13.3-0.8,19.9,0.8
	c9,3.8,16.5,9.3,21.4,17.9c1.5,3.9,2.9,7.8,4.6,12.2c0.3-5-1-8.8-3.7-12.2h0l0,0c-3.7-10-11.9-15.1-21.2-18.8
	c-9.3-6.3-19.3-3.8-29.3-2.3c13.2-4.4,26.4-6.6,39.2,1.3c2.2,1.3,4.3,2.6,6.5,4c5.2,5.1,9.7,10.9,13.1,17.4
	C99.3,27.9,96.1,21,89,16.4c-1.9-1.7-3.6-3.7-5.8-4.9C66.3,2.1,49,0.3,31.9,10.8C15.1,21,6.7,36.5,7.7,55.8
	C8.8,78.3,24.9,97,46.6,103.3c5.2,1.7,19.7,1.3,23.3,0.5c12.1-2.9,22.1-9,29.7-18.8C103.3,80.2,105.5,74.9,105.1,68.7z"/>
<path class="st3" d="M137.1,68.9c5,0.1,9.9,0,14.9,0c4.6,0,9.3,0,13.9,0c5.5-0.1,6.5-1.2,5.9-6.5c-1.1-10.5-10.6-19.1-21.4-19.5
	c-11.5-0.4-21.9,7.5-23.7,18.1c-1.9,11.3,4.4,22.3,15,25.6c8.2,2.6,15.8,1.3,22.5-4.3c1.8-1.5,3.2-3.4,1.4-5.7
	c-1.8-2.2-3.9-1.7-5.9-0.1c-0.9,0.7-1.8,1.4-2.7,1.9c-7.7,4.4-18.3,1.2-21.7-6.5C134.3,69.9,134.2,68.8,137.1,68.9z M135.2,58.8
	c2.9-5.6,7.5-8.5,13.8-8.5c6.4,0,10.9,2.9,14,8.4c1.3,2.3,0.9,3.4-2.1,3.3c-4-0.2-8,0-12,0c-3.8,0-7.7-0.1-11.5,0
	C134.9,62,133.8,61.4,135.2,58.8z"/>
<path class="st4" d="M217.8,80.4c-8.8,0-15.4-6.2-15.5-14.7c-0.1-8.9,6.3-15.4,15.2-15.5c8.8-0.1,15.6,6.6,15.6,15.2
	C233.1,73.9,226.4,80.4,217.8,80.4z"/>
<g>
</g>
<path class="st0" d="M294.7,60.9c0,8.3,0,16.6,0,25c-0.9,2-2.6,2.3-4.4,1.6c-1.9-0.7-2.3-2.4-2.3-4.3c0-5.7,0.1-11.4,0-17.1
	c-0.1-9.4-6.4-15.8-15.5-15.8c-9.1,0-15.4,6.4-15.4,15.8c0,5.6,0,11.1,0,16.7c0,2.6-0.6,5-3.8,5c-3.2,0-3.7-2.3-3.7-5
	c0-11.3,0-22.5,0-33.8c0-2.6-0.1-5.5,3.3-5.9c3.4-0.5,4,2.4,4.6,4.9C272.1,37,291.7,44.7,294.7,60.9z"/>
</svg>
